# AST/ASF file generated using VICON BodyLanguage
# -----------------------------------------------
:version 1.10
:name VICON
:units
  mass 1.0
  length 0.45
  angle deg
:documentation
   .ast/.asf automatically generated from VICON data using
   VICON BodyBuilder and BodyLanguage model FoxedUp or BRILLIANT.MOD
:root
   order TX TY TZ RX RY RZ
   axis XYZ
   position 0 0 0  
   orientation 0 0 0 
:bonedata
  begin
     id 1 
     name lhipjoint
     direction 0.521689 -0.742065 0.420928 
     length 2.47002 
     axis 0 0 0  XYZ
  end
  begin
     id 2 
     name lfemur
     direction 0.34202 -0.939693 0  
     length 7.24654  
     axis 0 0 20  XYZ
    dof rx ry rz
    limits (-160.0 20.0)
           (-70.0 70.0)
           (-60.0 70.0)
  end
  begin
     id 3 
     name ltibia
     direction 0.34202 -0.939693 0   
     length 8.04849   
     axis 0 0 20   XYZ
    dof rx
    limits (-10.0 170.0)
  end
  begin
     id 4 
     name lfoot
     direction 0.0745411 -0.2048 0.975961   
     length 1.72367   
     axis -90 7.62852e-016 20   XYZ
    dof rx rz
    limits (-45.0 90.0)
           (-70.0 20.0)
  end
  begin
     id 5 
     name ltoes
     direction 1.53556e-011 -4.21901e-011 1   
     length 0.87311   
     axis -90 7.62852e-016 20   XYZ
    dof rx
    limits (-90.0 20.0)
  end
  begin
     id 6 
     name rhipjoint
     direction -0.52849 -0.738415 0.418857   
     length 2.48223  
     axis 0 0 0  XYZ 
  end
  begin
     id 7 
     name rfemur
     direction -0.34202 -0.939693 0   
     length 7.15571   
     axis 0 0 -20   XYZ
    dof rx ry rz
    limits (-160.0 20.0)
           (-70.0 70.0)
           (-70.0 60.0)
  end
  begin
     id 8 
     name rtibia
     direction -0.34202 -0.939693 0   
     length 7.81659   
     axis 0 0 -20   XYZ
    dof rx
    limits (-10.0 170.0)
 end
 begin
     id 9 
     name rfoot
     direction -0.0917348 -0.252039 0.963359   
     length 1.84382  
     axis -90 -7.62852e-016 -20   XYZ
    dof rx rz
    limits (-45.0 90.0)
           (-20.0 70.0)
  end
  begin
     id 10 
     name rtoes
     direction -1.53551e-011 -4.21879e-011 1   
     length 0.927771   
     axis -90 -7.62852e-016 -20   XYZ
    dof rx
    limits (-90.0 20.0)
  end
  begin
     id 11 
     name lowerback
     direction 0.00583058 0.999822 0.0179296   
     length 2.1429   
     axis 0 0 0   XYZ
    dof rx ry rz
    limits (-20.0 45.0)
           (-30.0 30.0)
           (-30.0 30.0)
  end
  begin
     id 12 
     name upperback
     direction -0.0137999 0.999752 -0.0175071   
     length 2.14252   
     axis 0 0 0   XYZ
    dof rx ry rz
    limits (-20.0 45.0)
           (-30.0 30.0)
           (-30.0 30.0)
  end
  begin
     id 13 
     name thorax
     direction -0.0158036 0.99955 -0.0254909   
     length 2.1383   
     axis 0 0 0   XYZ
    dof rx ry rz
    limits (-20.0 45.0)
           (-30.0 30.0)
           (-30.0 30.0)
  end
  begin
     id 14 
     name lowerneck
     direction -0.0101179 0.999403 -0.0330262   
     length 1.65808   
     axis 0 0 0   XYZ
    dof rx ry rz
    limits (-20.0 45.0)
           (-30.0 30.0)
           (-30.0 30.0)
  end
  begin
     id 15 
     name upperneck
     direction 0.0497734 0.995978 -0.074501   
     length 1.5897   
     axis 0 0 0   XYZ
    dof rx ry rz
    limits (-20.0 45.0)
           (-30.0 30.0)
           (-30.0 30.0)
  end
  begin
     id 16
     name head
     direction 0.0189524 0.999519 -0.0245438  
     length 1.74024  
     axis 0 0 0   XYZ
    dof rx ry rz
    limits (-20.0 45.0)
           (-30.0 30.0)
           (-30.0 30.0)
  end
  begin
     id 17 
     name lclavicle
     direction 0.945604 0.324422 0.0241537  
     length 3.59089  
     axis 0 0 0   XYZ
    dof ry rz
    limits (-20.0 10.0)
           (0.0 20.0)
  end
  begin
     id 18 
     name lhumerus
     direction 1 -4.48964e-011 -2.63524e-027   
     length 5.2391   
     axis 180 -30 -90   XYZ
    dof rx ry rz
    limits (-60.0 90.0)
           (-90.0 90.0)
           (-90.0 90.0)
  end
  begin
     id 19
     name lradius
     direction 1 -4.48969e-011 3.86978e-028   
     length 3.31467   
     axis 180 -30 -90   XYZ
    dof rx
    limits (-10.0 170.0)
  end
  begin
     id 20
     name lwrist
     direction 1 -4.48963e-011 7.20928e-028   
     length 1.65734   
     axis -5.52449e-016 90 90   XYZ
    dof ry
    limits (-180.0 0.0)
 end
  begin
     id 21 
     name lhand
     direction 1 -4.48964e-011 1.44186e-027   
     length 0.9659   
     axis -9.20027e-016 90 90   XYZ
    dof rx rz
    limits (-90.0 90.0)
           (-45.0 45.0)
  end
  begin
     id 22 
     name lfingers
     direction 1 -4.48965e-011 2.88371e-027   
     length 0.778733   
     axis -1.84005e-015 90 90   XYZ
    dof rx
    limits (0.0 90.0)
  end
  begin
     id 23
     name lthumb
     direction 0.707107 -6.34931e-011 0.707107   
     length 1.11811   
     axis -90 45 2.85299e-015   XYZ
    dof rx rz
    limits (-45.0 45.0)
           (-45.0 45.0)
  end
  begin
     id 24 
     name rclavicle
     direction -0.923762 0.370785 0.0958234   
     length 3.54196  
     axis 0 0 0   XYZ 
    dof ry rz
    limits (-10.0 20.0)
           (-20.0 0.0)
  end
  begin
     id 25 
     name rhumerus
     direction -1 -4.48966e-011 1.18702e-017  
     length 5.30252   
     axis 180 30 90   XYZ
    dof rx ry rz
    limits (-90.0 60.0)
           (-90.0 90.0)
           (-90.0 90.0)
  end
  begin
     id 26 
     name rradius
     direction -1 -4.48966e-011 4.46736e-027   
     length 3.67875   
     axis 180 30 90   XYZ
    dof rx
    limits (-10.0 170.0)
  end
  begin
     id 27 
     name rwrist
     direction -1 -4.48966e-011 7.20928e-028   
     length 1.83937   
     axis -5.52449e-016 -90 -90   XYZ
    dof ry
    limits (-180.0 0.0)
  end
  begin
     id 28
     name rhand
     direction -1 -4.48973e-011 1.44186e-027   
     length 0.594811   
     axis -9.20027e-016 -90 -90   XYZ
    dof rx rz
    limits (-90.0 90.0)
           (-45.0 45.0)
  end
  begin
     id 29
     name rfingers
     direction -1 -4.48963e-011 2.88371e-027   
     length 0.479552   
     axis -1.84005e-015 -90 -90   XYZ
    dof rx
    limits (0.0 90.0)
  end
  begin
     id 30
     name rthumb
     direction -0.707107 -6.34932e-011 0.707107   
     length 0.688544   
     axis -90 -45 -2.85299e-015   XYZ
    dof rx rz
    limits (-45.0 45.0)
           (-45.0 45.0)
  end
:hierarchy
  begin
    root lhipjoint rhipjoint lowerback
    lhipjoint lfemur
    lfemur ltibia
    ltibia lfoot
    lfoot ltoes
    rhipjoint rfemur
    rfemur rtibia
    rtibia rfoot
    rfoot rtoes
    lowerback upperback
    upperback thorax
    thorax lowerneck lclavicle rclavicle
    lowerneck upperneck
    upperneck head
    lclavicle lhumerus
    lhumerus lradius
    lradius lwrist
    lwrist lhand lthumb
    lhand lfingers
    rclavicle rhumerus
    rhumerus rradius
    rradius rwrist
    rwrist rhand rthumb
    rhand rfingers
  end

#!OML:ASF E:\acrobat2\Project_11_07_03\Capture day 1\Session 1\Acrobat.ASF
:FULLY-SPECIFIED
:DEGREES
669
root 12.5391 21.0002 22.039 359.503 -0.838323 -0.0216181
lowerback -9.0207 -0.589596 -0.122525
upperback -7.01987 -0.775173 0.153877
thorax -2.22085 -0.381662 0.174372
lowerneck 8.09994 -0.567096 -6.78665
upperneck 6.80944 -1.3842 3.40064
head 0.845478 -0.846187 2.26934
rclavicle -1.2424e-016 9.93923e-017
rhumerus 79.8227 -30.7263 -44.1011
rradius 26.7435
rwrist -1.1383
rhand -26.1772 -24.5867
rfingers 7.12502
rthumb 0.374605 -54.5661
lclavicle -1.2424e-016 9.93923e-017
lhumerus 77.4892 26.4829 31.5864
lradius 27.4135
lwrist 6.42879
lhand -31.675 -28.5276
lfingers 7.12502
lthumb -4.93493 1.39492
rfemur 4.55207 4.58582 18.3953
rtibia 6.43363
rfoot -34.089 -17.3482
rtoes 15.2075
lfemur -8.17436 -3.96193 -15.061
ltibia 25.9546
lfoot -25.0484 -9.84207
ltoes -8.41697
670
root 12.5163 20.9945 22.0519 359.623 -0.758932 0.0377754
lowerback -9.05135 -0.491934 -0.0924386
upperback -6.97411 -0.6515 -0.307256
thorax -2.16246 -0.331242 -0.310699
lowerneck 7.89276 -0.815056 -5.2051
upperneck 7.01873 -1.57955 3.05347
head 0.937217 -0.908221 1.86856
rclavicle -1.2424e-015 -3.926e-015
rhumerus 79.2401 -31.2658 -44.0952
rradius 26.9319
rwrist -1.16259
rhand -26.1177 -24.5672
rfingers 7.12502
rthumb 0.43204 -54.5465
lclavicle -1.2424e-015 -3.926e-015
lhumerus 77.9146 26.3433 30.9089
lradius 27.6103
lwrist 6.84539
lhand -31.5294 -28.1429
lfingers 7.12502
lthumb -4.79429 1.78282
rfemur 4.78849 4.49305 18.3892
rtibia 5.83538
rfoot -33.8042 -17.5092
rtoes 14.9607
lfemur -8.31371 -3.90868 -15.0659
ltibia 26.0411
lfoot -25.4445 -9.76089
ltoes -9.29839
671
root 12.4946 20.9892 22.0658 359.74 -0.692917 0.0798531
lowerback -9.09089 -0.329656 -0.0116209
upperback -6.7785 -0.444101 -0.799382
thorax -1.94007 -0.240478 -0.850749
lowerneck 6.99291 -1.13366 -3.61085
upperneck 7.4611 -1.85776 2.73713
head 1.21582 -1.00559 1.48089
rclavicle -5.66536e-015 -4.57205e-015
rhumerus 78.9669 -32.0529 -44.4064
rradius 27.0141
rwrist -0.855517
rhand -26.1396 -24.4491
rfingers 7.12502
rthumb 0.410894 -54.4285
lclavicle -5.66536e-015 -4.57205e-015
lhumerus 78.762 26.3734 30.5811
lradius 27.7403
lwrist 7.16493
lhand -31.422 -27.7944
lfingers 7.12502
lthumb -4.69067 2.13365
rfemur 5.07901 4.41352 18.3887
rtibia 5.14111
rfoot -33.4896 -17.6908
rtoes 14.7388
lfemur -8.44581 -3.86267 -15.0521
ltibia 26.1294
lfoot -25.7835 -9.74682
ltoes -9.52272
672
root 12.474 20.9832 22.0796 359.859 -0.643083 0.132015
lowerback -9.13699 -0.158719 0.0666627
upperback -6.50978 -0.222323 -1.22616
thorax -1.63341 -0.139265 -1.32006
lowerneck 5.7235 -1.42281 -2.30206
upperneck 8.01328 -2.14278 2.49811
head 1.5912 -1.10741 1.17218
rclavicle 2.68359e-015 3.57812e-015
rhumerus 78.9479 -32.8782 -44.7961
rradius 27.0374
rwrist -0.432673
rhand -26.2381 -24.2632
rfingers 7.12502
rthumb 0.315782 -54.2427
lclavicle 2.68359e-015 3.57812e-015
lhumerus 79.833 26.5004 30.7788
lradius 27.7581
lwrist 7.17056
lhand -31.3885 -27.5372
lfingers 7.12502
lthumb -4.65824 2.39156
rfemur 5.40117 4.34992 18.3703
rtibia 4.38798
rfoot -33.1552 -17.9009
rtoes 14.5135
lfemur -8.57556 -3.80833 -15.0485
ltibia 26.2126
lfoot -26.0405 -9.82707
ltoes -9.12293
673
root 12.454 20.9769 22.0926 359.977 -0.612284 0.217783
lowerback -9.18855 -0.0342934 0.0979848
upperback -6.27671 -0.0571966 -1.48888
thorax -1.35891 -0.060694 -1.59671
lowerneck 4.58372 -1.59731 -1.62335
upperneck 8.52701 -2.34029 2.4106
head 1.94411 -1.17905 1.02157
rclavicle 4.96962e-016 1.11319e-014
rhumerus 79.0838 -33.4587 -45.0461
rradius 27.0449
rwrist -0.0687558
rhand -26.3726 -24.0274
rfingers 7.12502
rthumb 0.185876 -54.0071
lclavicle 4.96962e-016 1.11319e-014
lhumerus 80.6963 26.6633 31.2323
lradius 27.6926
lwrist 7.01343
lhand -31.4305 -27.349
lfingers 7.12502
lthumb -4.69881 2.57887
rfemur 5.73642 4.30508 18.3151
rtibia 3.61508
rfoot -32.8384 -18.0935
rtoes 14.4253
lfemur -8.69708 -3.74826 -15.0793
ltibia 26.2835
lfoot -26.227 -9.9792
ltoes -8.31389
674
root 12.4338 20.9704 22.1046 360.093 -0.597839 0.339802
lowerback -9.22819 0.134304 0.0968813
upperback -6.09441 0.16907 -1.6996
thorax -1.14052 0.050607 -1.79574
lowerneck 3.67454 -1.79735 -1.23896
upperneck 8.94586 -2.5971 2.35742
head 2.23754 -1.28858 0.931293
rclavicle 5.36719e-015 -1.55052e-014
rhumerus 78.997 -34.0183 -44.9187
rradius 27.0901
rwrist 0.151479
rhand -26.5077 -23.7557
rfingers 7.12502
rthumb 0.0554285 -53.7354
lclavicle 5.36719e-015 -1.55052e-014
lhumerus 81.4953 26.7382 31.7627
lradius 27.589
lwrist 6.92815
lhand -31.4868 -27.1669
lfingers 7.12502
lthumb -4.75318 2.75982
rfemur 6.08153 4.27605 18.2229
rtibia 2.8285
rfoot -32.5475 -18.2276
rtoes 14.5656
lfemur -8.81072 -3.6878 -15.1445
ltibia 26.3424
lfoot -26.3721 -10.17
ltoes -7.35707
675
root 12.4132 20.9638 22.1159 360.204 -0.592984 0.493862
lowerback -9.25384 0.207939 0.0266139
upperback -6.07563 0.27231 -1.7467
thorax -1.10372 0.103724 -1.79651
lowerneck 3.42693 -1.86592 -1.39088
upperneck 9.2038 -2.69802 2.40645
head 2.37239 -1.33989 0.970198
rclavicle 8.94531e-015 -2.10712e-014
rhumerus 78.8379 -34.1164 -44.5497
rradius 27.1625
rwrist 0.177307
rhand -26.6169 -23.4873
rfingers 7.12502
rthumb -0.0500388 -53.467
lclavicle 8.94531e-015 -2.10712e-014
lhumerus 81.6224 26.7805 31.9265
lradius 27.5157
lwrist 6.99496
lhand -31.5252 -26.9062
lfingers 7.12502
lthumb -4.79032 3.01965
rfemur 6.41634 4.25621 18.0978
rtibia 2.07231
rfoot -32.2927 -18.289
rtoes 14.9643
lfemur -8.90978 -3.61544 -15.2404
ltibia 26.3835
lfoot -26.478 -10.3734
ltoes -6.47571
676
root 12.3919 20.9579 22.1267 360.307 -0.596264 0.644993
lowerback -9.26082 0.279767 -0.0499051
upperback -6.04875 0.373623 -1.80326
thorax -1.06884 0.155883 -1.80359
lowerneck 3.09515 -1.92758 -1.53496
upperneck 9.50092 -2.79254 2.50369
head 2.53728 -1.3859 1.02265
rclavicle 8.94531e-016 1.23246e-014
rhumerus 78.6505 -34.2466 -44.1667
rradius 27.2512
rwrist 0.118619
rhand -26.6698 -23.2836
rfingers 7.12502
rthumb -0.101134 -53.2633
lclavicle 8.94531e-016 1.23246e-014
lhumerus 81.8122 26.8016 32.1817
lradius 27.4253
lwrist 6.9429
lhand -31.5721 -26.6314
lfingers 7.12502
lthumb -4.83554 3.29346
rfemur 6.67585 4.24449 17.9828
rtibia 1.47297
rfoot -32.1166 -18.2796
rtoes 15.55
lfemur -8.9909 -3.52787 -15.3284
ltibia 26.4025
lfoot -26.529 -10.5723
ltoes -5.75115
677
root 12.3705 20.953 22.1384 360.395 -0.612172 0.80746
lowerback -9.26598 0.339886 -0.142348
upperback -6.00548 0.460865 -1.86128
thorax -1.01849 0.201486 -1.80422
lowerneck 2.78417 -1.99234 -1.64087
upperneck 9.72014 -2.88609 2.56163
head 2.67223 -1.43151 1.05596
rclavicle -2.78299e-015 -7.95139e-015
rhumerus 78.4529 -34.3873 -43.7544
rradius 27.3715
rwrist -0.0508113
rhand -26.6349 -23.1999
rfingers 7.12502
rthumb -0.0674729 -53.1796
lclavicle -2.78299e-015 -7.95139e-015
lhumerus 81.9204 26.8882 32.295
lradius 27.3845
lwrist 7.00481
lhand -31.5949 -26.3388
lfingers 7.12502
lthumb -4.85755 3.58555
rfemur 6.72768 4.24711 17.8678
rtibia 1.30296
rfoot -32.1254 -18.1788
rtoes 16.1784
lfemur -9.03646 -3.45025 -15.4312
ltibia 26.3961
lfoot -26.5758 -10.74
ltoes -5.1608
